<svg width="44" height="44" viewBox="0 0 44 44" fill="none" xmlns="http://www.w3.org/2000/svg">
<rect width="44" height="44" rx="12" fill="#DCF2ED"/>
<g clip-path="url(#clip0_22_149)">
<path d="M17.5198 31.48C14.2498 29.94 11.9098 26.76 11.5498 23H10.0498C10.5598 29.16 15.7098 34 21.9998 34L22.6598 33.97L18.8498 30.16L17.5198 31.48ZM18.4098 24.96C18.2198 24.96 18.0398 24.93 17.8898 24.88C17.7298 24.82 17.5998 24.75 17.4898 24.64C17.3798 24.54 17.2898 24.42 17.2298 24.27C17.1698 24.13 17.1398 23.97 17.1398 23.8H15.8398C15.8398 24.16 15.9098 24.48 16.0498 24.75C16.1898 25.02 16.3798 25.25 16.6098 25.44C16.8498 25.62 17.1198 25.76 17.4298 25.85C17.7298 25.95 18.0498 26 18.3898 26C18.7598 26 19.1098 25.95 19.4198 25.85C19.7398 25.75 20.0198 25.6 20.2498 25.41C20.4798 25.22 20.6698 24.98 20.7998 24.69C20.9298 24.4 20.9998 24.08 20.9998 23.72C20.9998 23.53 20.9798 23.34 20.9298 23.16C20.8798 22.98 20.8098 22.81 20.6998 22.65C20.5998 22.49 20.4598 22.35 20.2998 22.22C20.1298 22.09 19.9298 21.99 19.6898 21.91C19.8898 21.82 20.0598 21.71 20.2098 21.58C20.3598 21.45 20.4798 21.31 20.5798 21.16C20.6798 21.01 20.7498 20.86 20.7998 20.7C20.8498 20.54 20.8698 20.38 20.8698 20.22C20.8698 19.86 20.8098 19.54 20.6898 19.26C20.5698 18.98 20.3998 18.75 20.1798 18.57C19.9798 18.38 19.7098 18.24 19.4098 18.14C19.0998 18.05 18.7598 18 18.3898 18C18.0298 18 17.6998 18.05 17.3898 18.16C17.0898 18.27 16.8198 18.42 16.5998 18.61C16.3898 18.8 16.2198 19.02 16.0898 19.28C15.9698 19.54 15.9098 19.82 15.9098 20.13H17.2098C17.2098 19.96 17.2398 19.81 17.2998 19.68C17.3598 19.55 17.4398 19.43 17.5498 19.34C17.6598 19.25 17.7798 19.17 17.9298 19.12C18.0798 19.07 18.2298 19.04 18.4098 19.04C18.8098 19.04 19.1098 19.14 19.2998 19.35C19.4898 19.55 19.5898 19.84 19.5898 20.21C19.5898 20.39 19.5598 20.55 19.5098 20.7C19.4598 20.85 19.3698 20.97 19.2598 21.07C19.1498 21.17 19.0098 21.25 18.8498 21.31C18.6898 21.37 18.4898 21.4 18.2698 21.4H17.4998V22.43H18.2698C18.4898 22.43 18.6898 22.45 18.8698 22.5C19.0498 22.55 19.1998 22.63 19.3198 22.73C19.4398 22.84 19.5398 22.97 19.6098 23.13C19.6798 23.29 19.7098 23.48 19.7098 23.7C19.7098 24.11 19.5898 24.42 19.3598 24.63C19.1298 24.86 18.8098 24.96 18.4098 24.96V24.96ZM26.9598 19.04C26.6398 18.71 26.2598 18.45 25.8198 18.27C25.3898 18.09 24.8998 18 24.3598 18H21.9998V26H24.2998C24.8498 26 25.3598 25.91 25.8098 25.73C26.2598 25.55 26.6498 25.3 26.9698 24.97C27.2898 24.64 27.5398 24.24 27.7098 23.78C27.8798 23.31 27.9698 22.79 27.9698 22.21V21.81C27.9698 21.23 27.8798 20.71 27.7098 20.24C27.5298 19.77 27.2798 19.37 26.9598 19.04V19.04ZM26.5698 22.2C26.5698 22.62 26.5198 22.99 26.4298 23.33C26.3298 23.66 26.1898 23.95 25.9998 24.18C25.8098 24.41 25.5698 24.59 25.2898 24.71C24.9998 24.83 24.6698 24.89 24.2998 24.89H23.3898V19.12H24.3598C25.0798 19.12 25.6298 19.35 25.9998 19.81C26.3798 20.27 26.5698 20.93 26.5698 21.8V22.2V22.2ZM21.9998 10L21.3398 10.03L25.1498 13.84L26.4798 12.51C29.7498 14.06 32.0898 17.23 32.4398 20.99H33.9398C33.4398 14.84 28.2898 10 21.9998 10Z" fill="#20484F"/>
</g>
<defs>
<clipPath id="clip0_22_149">
<rect width="24" height="24" fill="white" transform="translate(10 10)"/>
</clipPath>
</defs>
</svg>
