<svg width="32" height="32" viewBox="0 0 32 32" fill="none" xmlns="http://www.w3.org/2000/svg">
<g clip-path="url(#clip0_47_782)">
<path d="M29.3332 7.62665L23.1998 2.47998L21.4798 4.51998L27.6132 9.66665L29.3332 7.62665ZM10.5065 4.51998L8.79984 2.47998L2.6665 7.61331L4.3865 9.65331L10.5065 4.51998ZM16.6665 10.6666H14.6665V18.6666L20.9998 22.4666L21.9998 20.8266L16.6665 17.6666V10.6666ZM15.9998 5.33331C9.37317 5.33331 3.99984 10.7066 3.99984 17.3333C3.99984 23.96 9.35984 29.3333 15.9998 29.3333C22.6265 29.3333 27.9998 23.96 27.9998 17.3333C27.9998 10.7066 22.6265 5.33331 15.9998 5.33331ZM15.9998 26.6666C10.8398 26.6666 6.6665 22.4933 6.6665 17.3333C6.6665 12.1733 10.8398 7.99998 15.9998 7.99998C21.1598 7.99998 25.3332 12.1733 25.3332 17.3333C25.3332 22.4933 21.1598 26.6666 15.9998 26.6666Z" fill="#20484F"/>
</g>
<defs>
<clipPath id="clip0_47_782">
<rect width="32" height="32" fill="white"/>
</clipPath>
</defs>
</svg>
