<svg width="32" height="32" viewBox="0 0 32 32" fill="none" xmlns="http://www.w3.org/2000/svg">
<g clip-path="url(#clip0_47_803)">
<path d="M23.7465 5.95984C23.6398 5.95984 23.5331 5.93317 23.4398 5.87984C20.8798 4.55984 18.6665 3.99984 16.0132 3.99984C13.3731 3.99984 10.8665 4.6265 8.58648 5.87984C8.26648 6.05317 7.86648 5.93317 7.67982 5.61317C7.50648 5.29317 7.62648 4.87984 7.94648 4.7065C10.4265 3.35984 13.1465 2.6665 16.0132 2.6665C18.8531 2.6665 21.3332 3.29317 24.0532 4.69317C24.3865 4.8665 24.5065 5.2665 24.3331 5.5865C24.2131 5.8265 23.9865 5.95984 23.7465 5.95984ZM4.66648 12.9598C4.53315 12.9598 4.39982 12.9198 4.27982 12.8398C3.97315 12.6265 3.90648 12.2132 4.11982 11.9065C5.43982 10.0398 7.11982 8.57317 9.11982 7.5465C13.3065 5.3865 18.6665 5.37317 22.8665 7.53317C24.8665 8.55984 26.5465 10.0132 27.8665 11.8665C28.0798 12.1598 28.0131 12.5865 27.7065 12.7998C27.3998 13.0132 26.9865 12.9465 26.7731 12.6398C25.5731 10.9598 24.0532 9.63984 22.2531 8.71984C18.4265 6.75984 13.5331 6.75984 9.71982 8.73317C7.90648 9.6665 6.38648 10.9998 5.18648 12.6798C5.07982 12.8665 4.87982 12.9598 4.66648 12.9598ZM12.9998 29.0532C12.8265 29.0532 12.6531 28.9865 12.5331 28.8532C11.3731 27.6932 10.7465 26.9465 9.85315 25.3332C8.93315 23.6932 8.45315 21.6932 8.45315 19.5465C8.45315 15.5865 11.8398 12.3598 15.9998 12.3598C20.1598 12.3598 23.5465 15.5865 23.5465 19.5465C23.5465 19.9198 23.2531 20.2132 22.8798 20.2132C22.5065 20.2132 22.2131 19.9198 22.2131 19.5465C22.2131 16.3198 19.4265 13.6932 15.9998 13.6932C12.5731 13.6932 9.78648 16.3198 9.78648 19.5465C9.78648 21.4665 10.2132 23.2398 11.0265 24.6798C11.8798 26.2132 12.4665 26.8665 13.4931 27.9065C13.7465 28.1732 13.7465 28.5865 13.4931 28.8532C13.3465 28.9865 13.1732 29.0532 12.9998 29.0532ZM22.5598 26.5865C20.9731 26.5865 19.5731 26.1865 18.4265 25.3998C16.4398 24.0532 15.2531 21.8665 15.2531 19.5465C15.2531 19.1732 15.5465 18.8798 15.9198 18.8798C16.2931 18.8798 16.5865 19.1732 16.5865 19.5465C16.5865 21.4265 17.5465 23.1998 19.1731 24.2932C20.1198 24.9332 21.2265 25.2398 22.5598 25.2398C22.8798 25.2398 23.4131 25.1998 23.9465 25.1065C24.3065 25.0398 24.6532 25.2798 24.7198 25.6532C24.7865 26.0132 24.5465 26.3598 24.1731 26.4265C23.4131 26.5732 22.7465 26.5865 22.5598 26.5865ZM19.8798 29.3332C19.8265 29.3332 19.7598 29.3198 19.7065 29.3065C17.5865 28.7198 16.1998 27.9332 14.7465 26.5065C12.8798 24.6532 11.8532 22.1865 11.8532 19.5465C11.8532 17.3865 13.6931 15.6265 15.9598 15.6265C18.2265 15.6265 20.0665 17.3865 20.0665 19.5465C20.0665 20.9732 21.3065 22.1332 22.8398 22.1332C24.3731 22.1332 25.6131 20.9732 25.6131 19.5465C25.6131 14.5198 21.2798 10.4398 15.9465 10.4398C12.1598 10.4398 8.69315 12.5465 7.13315 15.8132C6.61315 16.8932 6.34648 18.1598 6.34648 19.5465C6.34648 20.5865 6.43982 22.2265 7.23982 24.3598C7.37315 24.7065 7.19982 25.0932 6.85315 25.2132C6.50648 25.3465 6.11982 25.1598 5.99982 24.8265C5.34648 23.0798 5.02648 21.3465 5.02648 19.5465C5.02648 17.9465 5.33315 16.4932 5.93315 15.2265C7.70648 11.5065 11.6398 9.09317 15.9465 9.09317C22.0131 9.09317 26.9465 13.7732 26.9465 19.5332C26.9465 21.6932 25.1065 23.4532 22.8398 23.4532C20.5731 23.4532 18.7331 21.6932 18.7331 19.5332C18.7331 18.1065 17.4931 16.9465 15.9598 16.9465C14.4265 16.9465 13.1865 18.1065 13.1865 19.5332C13.1865 21.8132 14.0665 23.9465 15.6798 25.5465C16.9465 26.7998 18.1598 27.4932 20.0398 28.0132C20.3998 28.1065 20.5998 28.4798 20.5065 28.8265C20.4398 29.1332 20.1598 29.3332 19.8798 29.3332Z" fill="#20484F"/>
</g>
<defs>
<clipPath id="clip0_47_803">
<rect width="32" height="32" fill="white"/>
</clipPath>
</defs>
</svg>
