<svg width="32" height="32" viewBox="0 0 32 32" fill="none" xmlns="http://www.w3.org/2000/svg">
<g clip-path="url(#clip0_47_815)">
<path d="M26.6665 7.99984H22.6665V5.33317C22.6665 3.85317 21.4798 2.6665 19.9998 2.6665H11.9998C10.5198 2.6665 9.33317 3.85317 9.33317 5.33317V7.99984H5.33317C3.85317 7.99984 2.6665 9.1865 2.6665 10.6665V25.3332C2.6665 26.8132 3.85317 27.9998 5.33317 27.9998H26.6665C28.1465 27.9998 29.3332 26.8132 29.3332 25.3332V10.6665C29.3332 9.1865 28.1465 7.99984 26.6665 7.99984ZM11.9998 5.33317H19.9998V7.99984H11.9998V5.33317ZM26.6665 25.3332H5.33317V22.6665H26.6665V25.3332ZM26.6665 18.6665H5.33317V10.6665H9.33317V13.3332H11.9998V10.6665H19.9998V13.3332H22.6665V10.6665H26.6665V18.6665Z" fill="black"/>
</g>
<defs>
<clipPath id="clip0_47_815">
<rect width="32" height="32" fill="white"/>
</clipPath>
</defs>
</svg>
