<svg width="32" height="32" viewBox="0 0 32 32" fill="none" xmlns="http://www.w3.org/2000/svg">
<g clip-path="url(#clip0_47_789)">
<path d="M22.1198 10.1065L13.3332 18.8932L8.5465 14.1198L6.6665 15.9998L13.3332 22.6665L23.9998 11.9998L22.1198 10.1065ZM15.9998 2.6665C8.63984 2.6665 2.6665 8.63984 2.6665 15.9998C2.6665 23.3598 8.63984 29.3332 15.9998 29.3332C23.3598 29.3332 29.3332 23.3598 29.3332 15.9998C29.3332 8.63984 23.3598 2.6665 15.9998 2.6665ZM15.9998 26.6665C10.1065 26.6665 5.33317 21.8932 5.33317 15.9998C5.33317 10.1065 10.1065 5.33317 15.9998 5.33317C21.8932 5.33317 26.6665 10.1065 26.6665 15.9998C26.6665 21.8932 21.8932 26.6665 15.9998 26.6665Z" fill="#20484F"/>
</g>
<defs>
<clipPath id="clip0_47_789">
<rect width="32" height="32" fill="white"/>
</clipPath>
</defs>
</svg>
