<svg width="32" height="32" viewBox="0 0 32 32" fill="none" xmlns="http://www.w3.org/2000/svg">
<g clip-path="url(#clip0_47_796)">
<path d="M1.3335 12H4.00016V9.33333H1.3335V12ZM1.3335 17.3333H4.00016V14.6667H1.3335V17.3333ZM1.3335 6.66667H4.00016V4C2.5335 4 1.3335 5.2 1.3335 6.66667ZM12.0002 28H14.6668V25.3333H12.0002V28ZM1.3335 22.6667H4.00016V20H1.3335V22.6667ZM4.00016 28V25.3333H1.3335C1.3335 26.8 2.5335 28 4.00016 28ZM28.0002 4H17.3335V12H30.6668V6.66667C30.6668 5.2 29.4668 4 28.0002 4ZM28.0002 22.6667H30.6668V20H28.0002V22.6667ZM12.0002 6.66667H14.6668V4H12.0002V6.66667ZM6.66683 28H9.3335V25.3333H6.66683V28ZM6.66683 6.66667H9.3335V4H6.66683V6.66667ZM28.0002 28C29.4668 28 30.6668 26.8 30.6668 25.3333H28.0002V28ZM28.0002 17.3333H30.6668V14.6667H28.0002V17.3333ZM17.3335 28H20.0002V25.3333H17.3335V28ZM22.6668 28H25.3335V25.3333H22.6668V28Z" fill="#20484F"/>
</g>
<defs>
<clipPath id="clip0_47_796">
<rect width="32" height="32" fill="white"/>
</clipPath>
</defs>
</svg>
